<?xml version="1.0" standalone="no"?>
<!DOCTYPE svg PUBLIC "-//W3C//DTD SVG 20010904//EN"
 "http://www.w3.org/TR/2001/REC-SVG-20010904/DTD/svg10.dtd">
<svg version="1.0" xmlns="http://www.w3.org/2000/svg"
 width="1536.000000pt" height="1024.000000pt" viewBox="0 0 1536.000000 1024.000000"
 preserveAspectRatio="xMidYMid meet">

<g transform="translate(0.000000,1024.000000) scale(0.100000,-0.100000)"
fill="#000000" stroke="none">
<path d="M6430 8113 c-100 -16 -219 -95 -279 -184 -75 -112 -71 -57 -71 -1071
l0 -908 -145 0 c-143 0 -146 -1 -171 -25 -26 -26 -26 -27 -22 -173 5 -225 22
-242 235 -250 l123 -4 146 -199 c80 -110 144 -204 142 -210 -2 -5 -51 25 -108
67 -58 43 -121 83 -140 90 -27 10 -222 13 -875 13 l-840 1 -51 -24 c-61 -28
-28 16 -474 -641 -194 -286 -408 -599 -475 -695 -67 -96 -132 -193 -144 -215
-38 -72 -20 -164 42 -209 28 -21 33 -21 1165 -24 1263 -3 1190 -7 1251 63 58
66 54 140 -14 275 l-44 88 48 31 c26 17 52 31 57 31 6 0 18 -26 28 -57 35
-116 122 -241 236 -337 156 -133 370 -194 593 -168 231 27 419 133 553 311 48
64 114 200 114 235 0 14 65 16 634 16 626 0 634 0 660 21 35 28 47 51 66 134
l16 70 58 5 c31 3 61 3 65 0 4 -3 17 -43 29 -90 141 -538 723 -839 1301 -674
318 91 578 341 674 650 93 296 46 620 -127 878 -209 312 -559 487 -929 462
-511 -35 -906 -423 -945 -930 l-7 -91 -47 1 c-86 1 -118 53 -118 192 0 62 8
119 25 188 14 54 25 100 25 101 0 2 -492 3 -1094 3 -731 0 -1120 -4 -1172 -11
-228 -31 -399 -142 -518 -332 -50 -80 -100 -205 -110 -277 -13 -83 -18 -100
-27 -94 -15 9 -10 171 6 235 36 136 124 279 247 394 172 165 391 255 648 269
58 3 558 6 1111 6 l1007 0 43 58 c66 89 232 246 322 306 136 90 239 134 399
173 58 14 113 18 263 17 180 -1 196 -2 310 -32 212 -56 386 -156 578 -331 70
-64 82 -71 118 -71 31 0 53 8 88 34 62 46 107 95 120 129 15 38 15 968 1 1019
-17 60 -317 341 -421 393 -108 55 -107 55 -851 55 l-688 0 0 180 0 180 848 0
c953 0 894 5 939 -75 21 -37 23 -52 23 -210 0 -157 2 -174 23 -215 39 -78 57
-85 225 -88 118 -3 151 0 167 12 19 14 20 28 23 288 2 174 -1 298 -9 341 -31
184 -182 358 -351 403 -44 11 -216 14 -970 14 l-918 0 0 58 c-1 205 -148 384
-350 422 -50 9 -2231 13 -2290 3z m2120 -443 c15 -11 33 -32 39 -47 8 -21 11
-229 9 -775 l-3 -748 -28 -27 -27 -28 -960 -3 c-846 -2 -964 0 -990 13 -62 32
-60 1 -60 821 l0 746 34 34 34 34 962 0 c942 0 962 0 990 -20z m-2905 -2782
c-123 -152 -174 -225 -211 -303 -42 -90 -74 -205 -74 -267 l0 -33 -24 25 c-22
23 -442 569 -459 598 -7 9 75 12 393 12 l401 0 -26 -32z m4330 -24 c145 -41
276 -165 326 -311 59 -172 19 -342 -113 -479 -240 -251 -644 -189 -794 121
-35 74 -39 88 -42 182 -4 85 -1 112 18 167 42 126 132 232 249 291 40 19 91
34 176 48 33 6 127 -4 180 -19z m-5337 -340 c59 -80 187 -254 285 -386 98
-132 176 -242 174 -244 -2 -2 -254 -3 -559 -2 l-555 3 209 300 c115 165 234
339 266 387 31 48 60 88 65 88 4 0 56 -66 115 -146z m2078 -67 c156 -79 241
-256 200 -417 -58 -228 -305 -342 -522 -241 -251 117 -281 468 -54 626 72 50
134 66 235 62 72 -3 100 -9 141 -30z"/>
<path d="M5430 7800 c-19 -19 -20 -33 -20 -334 0 -273 2 -317 16 -330 13 -14
47 -16 220 -16 191 0 205 1 224 20 19 19 20 33 20 333 0 291 -1 315 -18 330
-16 15 -47 17 -220 17 -189 0 -203 -1 -222 -20z"/>
</g>
</svg>
