<?xml version="1.0" standalone="no"?>
<!DOCTYPE svg PUBLIC "-//W3C//DTD SVG 20010904//EN"
 "http://www.w3.org/TR/2001/REC-SVG-20010904/DTD/svg10.dtd">
<svg version="1.0" xmlns="http://www.w3.org/2000/svg"
 width="445.000000pt" height="337.000000pt" viewBox="0 0 445.000000 337.000000"
 preserveAspectRatio="xMidYMid meet">

<g transform="translate(0.000000,337.000000) scale(0.100000,-0.100000)"
fill="#000000" stroke="none">
<path d="M2176 2172 c-149 -1 -234 -6 -243 -13 -9 -8 -13 -37 -13 -90 l0 -79
-58 0 c-91 0 -100 -20 -52 -114 17 -32 30 -60 30 -62 0 -2 -211 -4 -470 -4
-549 0 -525 4 -596 -94 -51 -70 -62 -100 -43 -122 25 -30 61 -13 105 50 23 33
50 63 60 67 11 4 58 8 106 8 l87 1 -24 -46 c-24 -45 -25 -56 -25 -214 0 -117
4 -171 13 -183 10 -14 35 -17 162 -19 l150 -3 3 -64 c3 -59 1 -66 -26 -95 -48
-50 -66 -95 -66 -161 0 -132 95 -225 231 -225 97 0 185 61 214 147 l11 33 308
0 309 0 17 -35 c38 -82 139 -144 239 -148 101 -3 210 64 254 158 21 45 22 46
59 40 61 -10 62 -12 62 -57 0 -51 28 -101 67 -121 41 -22 582 -28 606 -8 36
29 7 118 -52 158 -18 12 -62 26 -104 33 -124 19 -123 19 -104 38 15 14 21 15
50 3 45 -18 57 -17 113 16 l49 29 0 75 0 74 -50 32 c-59 39 -72 40 -122 11
-67 -38 -73 -47 -73 -103 0 -45 -3 -54 -30 -73 -16 -12 -32 -22 -35 -22 -3 0
-30 18 -59 40 -52 40 -53 40 -142 40 -99 0 -114 -7 -114 -53 0 -29 -1 -29 -42
-23 -51 8 -58 12 -58 36 0 23 -18 66 -43 103 l-18 27 104 0 c85 0 109 3 126
18 17 14 27 59 66 289 25 149 45 283 45 297 0 15 -8 30 -19 36 -12 6 -128 10
-305 10 -157 0 -286 2 -286 5 0 3 14 33 31 67 25 50 29 65 20 85 -9 20 -17 23
-71 23 l-60 0 0 79 c0 81 -6 94 -45 102 -11 2 -123 3 -249 1z m204 -137 l0
-45 -185 0 -185 0 0 45 0 45 185 0 185 0 0 -45z m88 -180 l-22 -45 -251 0
-251 0 -22 45 -22 45 295 0 295 0 -22 -45z m142 -364 l0 -230 -54 -11 c-108
-22 -193 -107 -217 -216 l-12 -54 -121 0 -121 0 -30 51 c-42 72 -147 167 -233
212 -43 23 -121 51 -190 68 -103 27 -140 31 -309 36 l-193 6 0 123 c0 72 5
134 12 148 7 17 28 32 64 45 126 48 153 49 797 50 l607 1 0 -229z m450 204 l0
-25 -136 0 c-74 0 -144 -5 -155 -10 -18 -10 -19 -23 -19 -175 0 -152 1 -165
19 -175 11 -5 65 -10 120 -10 94 0 101 -1 101 -20 0 -19 -7 -20 -145 -20
l-145 0 0 230 0 230 180 0 180 0 0 -25z m-24 -142 c-3 -16 -11 -58 -17 -95
l-11 -68 -84 0 -84 0 0 95 0 95 101 0 101 0 -6 -27z m-1388 -340 c46 -13 102
-33 125 -45 63 -32 143 -97 178 -145 l30 -43 -124 0 -125 0 -28 58 c-40 79
-90 112 -178 119 l-66 6 0 44 0 44 53 -7 c28 -4 89 -17 135 -31z m1052 -74
c160 -90 94 -339 -90 -339 -70 0 -133 39 -166 102 -22 43 -18 127 10 172 49
82 162 112 246 65z m810 -44 c20 -25 8 -50 -25 -50 -21 0 -31 5 -33 18 -4 21
14 47 33 47 7 0 18 -7 25 -15z m-1939 -40 c92 -48 90 -193 -2 -241 -23 -11
-47 -15 -83 -11 -41 4 -55 10 -83 41 -29 31 -33 43 -33 89 0 32 6 61 16 76 40
56 124 77 185 46z m1666 -142 c87 -66 89 -67 192 -85 57 -9 109 -19 115 -22 6
-2 -93 -5 -219 -5 -167 -1 -234 2 -243 11 -7 7 -12 43 -12 90 l0 78 40 0 c33
0 53 -10 127 -67z"/>
<path d="M2031 1575 l-48 -45 -365 0 c-383 0 -388 -1 -388 -45 0 -45 4 -45
413 -45 l389 0 42 45 43 45 185 0 c172 0 186 1 203 20 15 17 16 24 7 45 l-12
25 -210 0 -211 0 -48 -45z"/>
<path d="M2592 1023 c-22 -9 -34 -41 -22 -63 23 -44 101 -12 84 35 -5 13 -36
37 -46 34 -2 0 -9 -3 -16 -6z"/>
<path d="M1472 968 c-7 -7 -12 -21 -12 -33 0 -12 5 -26 12 -33 29 -29 78 -7
78 35 0 35 -53 56 -78 31z"/>
</g>
</svg>
